# xmcd
#
# Track frame offsets:
#	182
#	9002
#	26262
#	41057
#	45995
#	56047
#	62670
#	74212
#	84047
#	93005
#	108925
#	113877
#	149762
#	155725
#	158575
#	164270
#	177225
#	187305
#	205585
#	229450
#	262450
#
# Disc length: 3606 seconds
#
# Revision: 7
# Processed by: cddbd v1.5.2PL0 Copyright (c) Steve Scherf et al.
# Submitted via: EZCDAudioConverter 1.3.4.1
#
DISCID=220e1415
DTITLE=Laurie Anderson - United States Live 3/4
DYEAR=1984
DGENRE=
TTITLE0=Red Map
TTITLE1=Hey Ah
TTITLE2=Bagpipe Solo
TTITLE3=Steven Weed
TTITLE4=Time And A Half
TTITLE5=Voices On Tape
TTITLE6=Example #22
TTITLE7=Strike
TTITLE8=False Documents
TTITLE9=New York Social Life
TTITLE10=A Curious Phenomenon
TTITLE11=Yankee See
TTITLE12=I Dreamed I Had To Take A Test...
TTITLE13=Running Dogs
TTITLE14=Four, Three, Two, One
TTITLE15=The Big Top
TTITLE16=It Was Up In The Mountains
TTITLE17=Odd Objects (For Light-In-Mouth)
TTITLE18=Dr. Miller
TTITLE19=Big Science
TTITLE20=Big Science (Reprise)
EXTD=
EXTT0=
EXTT1=
EXTT2=
EXTT3=
EXTT4=
EXTT5=
EXTT6=
EXTT7=
EXTT8=
EXTT9=
EXTT10=
EXTT11=
EXTT12=
EXTT13=
EXTT14=
EXTT15=
EXTT16=
EXTT17=
EXTT18=
EXTT19=
EXTT20=
PLAYORDER=
